<svg xmlns="http://www.w3.org/2000/svg" xmlns:xlink="http://www.w3.org/1999/xlink" width="326" zoomAndPan="magnify" viewBox="0 0 244.5 30.000001" height="40" preserveAspectRatio="xMidYMid meet" version="1.0"><defs><g/></defs><path stroke-linecap="butt" transform="matrix(0.725806, 0, 0, 0.725806, 126.637627, 4.851359)" fill="none" stroke-linejoin="miter" d="M -0.0012514 2.002363 L 28.307777 2.002363 " stroke="#5e17eb" stroke-width="4" stroke-opacity="1" stroke-miterlimit="4"/><path stroke-linecap="butt" transform="matrix(0, -0.725806, 0.725806, 0, 123.878315, 14.514895)" fill="none" stroke-linejoin="miter" d="M -0.0010061 1.997516 L 13.313925 1.997516 " stroke="#5e17eb" stroke-width="4" stroke-opacity="1" stroke-miterlimit="4"/><g fill="#ffffff" fill-opacity="1"><g transform="translate(80.444576, 18.886249)"><g><path d="M 7.84375 -7.90625 C 8.082031 -7.425781 8.203125 -6.894531 8.203125 -6.3125 C 8.203125 -5.726562 8.082031 -5.195312 7.84375 -4.71875 C 7.613281 -4.25 7.316406 -3.875 6.953125 -3.59375 C 6.203125 -3.019531 5.425781 -2.734375 4.625 -2.734375 L 2.9375 -2.734375 L 2.9375 -1.203125 C 2.9375 -0.992188 2.925781 -0.835938 2.90625 -0.734375 C 2.894531 -0.628906 2.851562 -0.507812 2.78125 -0.375 C 2.65625 -0.132812 2.304688 -0.015625 1.734375 -0.015625 C 1.097656 -0.015625 0.726562 -0.179688 0.625 -0.515625 C 0.570312 -0.671875 0.546875 -0.90625 0.546875 -1.21875 L 0.546875 -8.71875 C 0.546875 -8.925781 0.550781 -9.082031 0.5625 -9.1875 C 0.570312 -9.289062 0.613281 -9.410156 0.6875 -9.546875 C 0.8125 -9.785156 1.164062 -9.90625 1.75 -9.90625 L 4.640625 -9.90625 C 5.429688 -9.90625 6.203125 -9.617188 6.953125 -9.046875 C 7.316406 -8.765625 7.613281 -8.382812 7.84375 -7.90625 Z M 4.640625 -5.125 C 4.910156 -5.125 5.175781 -5.222656 5.4375 -5.421875 C 5.695312 -5.617188 5.828125 -5.914062 5.828125 -6.3125 C 5.828125 -6.707031 5.695312 -7.003906 5.4375 -7.203125 C 5.175781 -7.410156 4.90625 -7.515625 4.625 -7.515625 L 2.9375 -7.515625 L 2.9375 -5.125 Z M 4.640625 -5.125 "/></g></g></g><g fill="#ffffff" fill-opacity="1"><g transform="translate(88.988051, 18.886249)"><g><path d="M 5.15625 -6.359375 C 5.21875 -6.867188 5.578125 -7.125 6.234375 -7.125 C 6.585938 -7.125 6.847656 -7.09375 7.015625 -7.03125 C 7.179688 -6.976562 7.296875 -6.882812 7.359375 -6.75 C 7.429688 -6.625 7.472656 -6.507812 7.484375 -6.40625 C 7.503906 -6.300781 7.515625 -6.144531 7.515625 -5.9375 L 7.515625 -1.203125 C 7.515625 -0.992188 7.503906 -0.835938 7.484375 -0.734375 C 7.472656 -0.628906 7.4375 -0.507812 7.375 -0.375 C 7.25 -0.144531 6.941406 -0.03125 6.453125 -0.03125 C 5.960938 -0.03125 5.632812 -0.0859375 5.46875 -0.203125 C 5.300781 -0.328125 5.203125 -0.507812 5.171875 -0.75 C 4.835938 -0.269531 4.28125 -0.03125 3.5 -0.03125 C 2.726562 -0.03125 2.007812 -0.382812 1.34375 -1.09375 C 0.675781 -1.800781 0.34375 -2.625 0.34375 -3.5625 C 0.34375 -4.507812 0.675781 -5.335938 1.34375 -6.046875 C 2.019531 -6.753906 2.753906 -7.109375 3.546875 -7.109375 C 3.859375 -7.109375 4.140625 -7.050781 4.390625 -6.9375 C 4.640625 -6.832031 4.8125 -6.734375 4.90625 -6.640625 C 5.007812 -6.546875 5.09375 -6.453125 5.15625 -6.359375 Z M 2.703125 -3.546875 C 2.703125 -3.253906 2.816406 -2.988281 3.046875 -2.75 C 3.285156 -2.507812 3.570312 -2.390625 3.90625 -2.390625 C 4.238281 -2.390625 4.515625 -2.507812 4.734375 -2.75 C 4.953125 -3 5.0625 -3.269531 5.0625 -3.5625 C 5.0625 -3.851562 4.957031 -4.125 4.75 -4.375 C 4.539062 -4.625 4.253906 -4.75 3.890625 -4.75 C 3.535156 -4.75 3.25 -4.625 3.03125 -4.375 C 2.8125 -4.125 2.703125 -3.847656 2.703125 -3.546875 Z M 2.703125 -3.546875 "/></g></g></g><g fill="#ffffff" fill-opacity="1"><g transform="translate(97.044873, 18.886249)"><g><path d="M 4.5 -7.125 C 5.40625 -7.125 6.15625 -6.78125 6.75 -6.09375 C 7.351562 -5.40625 7.65625 -4.5625 7.65625 -3.5625 L 7.65625 -1.1875 C 7.65625 -0.976562 7.644531 -0.820312 7.625 -0.71875 C 7.613281 -0.613281 7.578125 -0.5 7.515625 -0.375 C 7.390625 -0.132812 7.035156 -0.015625 6.453125 -0.015625 C 5.816406 -0.015625 5.453125 -0.179688 5.359375 -0.515625 C 5.296875 -0.671875 5.265625 -0.898438 5.265625 -1.203125 L 5.265625 -3.578125 C 5.265625 -3.953125 5.160156 -4.238281 4.953125 -4.4375 C 4.742188 -4.644531 4.457031 -4.75 4.09375 -4.75 C 3.738281 -4.75 3.453125 -4.640625 3.234375 -4.421875 C 3.015625 -4.210938 2.90625 -3.929688 2.90625 -3.578125 L 2.90625 -1.1875 C 2.90625 -0.976562 2.894531 -0.820312 2.875 -0.71875 C 2.863281 -0.613281 2.820312 -0.5 2.75 -0.375 C 2.632812 -0.132812 2.289062 -0.015625 1.71875 -0.015625 C 1.144531 -0.015625 0.796875 -0.132812 0.671875 -0.375 C 0.609375 -0.507812 0.570312 -0.628906 0.5625 -0.734375 C 0.550781 -0.835938 0.546875 -0.992188 0.546875 -1.203125 L 0.546875 -5.984375 C 0.546875 -6.179688 0.550781 -6.332031 0.5625 -6.4375 C 0.570312 -6.539062 0.613281 -6.65625 0.6875 -6.78125 C 0.8125 -7.007812 1.160156 -7.125 1.734375 -7.125 C 2.273438 -7.125 2.613281 -7.019531 2.75 -6.8125 C 2.832031 -6.65625 2.875 -6.46875 2.875 -6.25 C 2.914062 -6.320312 3 -6.414062 3.125 -6.53125 C 3.25 -6.644531 3.367188 -6.738281 3.484375 -6.8125 C 3.796875 -7.019531 4.132812 -7.125 4.5 -7.125 Z M 4.5 -7.125 "/></g></g></g><g fill="#ffffff" fill-opacity="1"><g transform="translate(105.236875, 18.886249)"><g><path d="M 5.3125 -10.078125 C 5.382812 -10.210938 5.503906 -10.304688 5.671875 -10.359375 C 5.847656 -10.421875 6.078125 -10.453125 6.359375 -10.453125 C 6.640625 -10.453125 6.863281 -10.421875 7.03125 -10.359375 C 7.207031 -10.304688 7.328125 -10.210938 7.390625 -10.078125 C 7.460938 -9.941406 7.503906 -9.820312 7.515625 -9.71875 C 7.535156 -9.613281 7.546875 -9.460938 7.546875 -9.265625 L 7.546875 -1.1875 C 7.546875 -0.976562 7.535156 -0.820312 7.515625 -0.71875 C 7.503906 -0.613281 7.460938 -0.5 7.390625 -0.375 C 7.253906 -0.132812 6.875 -0.015625 6.25 -0.015625 C 5.625 -0.015625 5.273438 -0.234375 5.203125 -0.671875 C 4.828125 -0.242188 4.300781 -0.03125 3.625 -0.03125 C 2.8125 -0.03125 2.070312 -0.382812 1.40625 -1.09375 C 0.738281 -1.800781 0.40625 -2.625 0.40625 -3.5625 C 0.40625 -4.5 0.738281 -5.320312 1.40625 -6.03125 C 2.082031 -6.75 2.820312 -7.109375 3.625 -7.109375 C 4.289062 -7.109375 4.804688 -6.882812 5.171875 -6.4375 L 5.171875 -9.265625 C 5.171875 -9.472656 5.175781 -9.628906 5.1875 -9.734375 C 5.207031 -9.835938 5.25 -9.953125 5.3125 -10.078125 Z M 3.109375 -2.734375 C 3.347656 -2.492188 3.632812 -2.375 3.96875 -2.375 C 4.300781 -2.375 4.578125 -2.492188 4.796875 -2.734375 C 5.023438 -2.984375 5.140625 -3.253906 5.140625 -3.546875 C 5.140625 -3.835938 5.03125 -4.109375 4.8125 -4.359375 C 4.601562 -4.617188 4.316406 -4.75 3.953125 -4.75 C 3.597656 -4.75 3.3125 -4.625 3.09375 -4.375 C 2.875 -4.125 2.765625 -3.847656 2.765625 -3.546875 C 2.765625 -3.253906 2.878906 -2.984375 3.109375 -2.734375 Z M 3.109375 -2.734375 "/></g></g></g><g fill="#ffffff" fill-opacity="1"><g transform="translate(113.32073, 18.886249)"><g><path d="M 5.15625 -6.359375 C 5.21875 -6.867188 5.578125 -7.125 6.234375 -7.125 C 6.585938 -7.125 6.847656 -7.09375 7.015625 -7.03125 C 7.179688 -6.976562 7.296875 -6.882812 7.359375 -6.75 C 7.429688 -6.625 7.472656 -6.507812 7.484375 -6.40625 C 7.503906 -6.300781 7.515625 -6.144531 7.515625 -5.9375 L 7.515625 -1.203125 C 7.515625 -0.992188 7.503906 -0.835938 7.484375 -0.734375 C 7.472656 -0.628906 7.4375 -0.507812 7.375 -0.375 C 7.25 -0.144531 6.941406 -0.03125 6.453125 -0.03125 C 5.960938 -0.03125 5.632812 -0.0859375 5.46875 -0.203125 C 5.300781 -0.328125 5.203125 -0.507812 5.171875 -0.75 C 4.835938 -0.269531 4.28125 -0.03125 3.5 -0.03125 C 2.726562 -0.03125 2.007812 -0.382812 1.34375 -1.09375 C 0.675781 -1.800781 0.34375 -2.625 0.34375 -3.5625 C 0.34375 -4.507812 0.675781 -5.335938 1.34375 -6.046875 C 2.019531 -6.753906 2.753906 -7.109375 3.546875 -7.109375 C 3.859375 -7.109375 4.140625 -7.050781 4.390625 -6.9375 C 4.640625 -6.832031 4.8125 -6.734375 4.90625 -6.640625 C 5.007812 -6.546875 5.09375 -6.453125 5.15625 -6.359375 Z M 2.703125 -3.546875 C 2.703125 -3.253906 2.816406 -2.988281 3.046875 -2.75 C 3.285156 -2.507812 3.570312 -2.390625 3.90625 -2.390625 C 4.238281 -2.390625 4.515625 -2.507812 4.734375 -2.75 C 4.953125 -3 5.0625 -3.269531 5.0625 -3.5625 C 5.0625 -3.851562 4.957031 -4.125 4.75 -4.375 C 4.539062 -4.625 4.253906 -4.75 3.890625 -4.75 C 3.535156 -4.75 3.25 -4.625 3.03125 -4.375 C 2.8125 -4.125 2.703125 -3.847656 2.703125 -3.546875 Z M 2.703125 -3.546875 "/></g></g></g><g fill="#ffffff" fill-opacity="1"><g transform="translate(121.384595, 18.886249)"><g/></g></g><g fill="#ffffff" fill-opacity="1"><g transform="translate(124.804688, 18.886249)"><g/></g></g><g fill="#ffffff" fill-opacity="1"><g transform="translate(128.234394, 18.886249)"><g><path d="M 0.6875 -1.390625 C 0.457031 -1.679688 0.34375 -1.941406 0.34375 -2.171875 C 0.34375 -2.398438 0.535156 -2.703125 0.921875 -3.078125 C 1.140625 -3.296875 1.375 -3.40625 1.625 -3.40625 C 1.882812 -3.40625 2.238281 -3.179688 2.6875 -2.734375 C 2.8125 -2.578125 2.988281 -2.425781 3.21875 -2.28125 C 3.457031 -2.144531 3.675781 -2.078125 3.875 -2.078125 C 4.71875 -2.078125 5.140625 -2.421875 5.140625 -3.109375 C 5.140625 -3.316406 5.023438 -3.488281 4.796875 -3.625 C 4.566406 -3.769531 4.28125 -3.875 3.9375 -3.9375 C 3.59375 -4 3.222656 -4.097656 2.828125 -4.234375 C 2.429688 -4.378906 2.0625 -4.546875 1.71875 -4.734375 C 1.375 -4.921875 1.085938 -5.21875 0.859375 -5.625 C 0.628906 -6.039062 0.515625 -6.535156 0.515625 -7.109375 C 0.515625 -7.898438 0.804688 -8.585938 1.390625 -9.171875 C 1.984375 -9.765625 2.789062 -10.0625 3.8125 -10.0625 C 4.351562 -10.0625 4.84375 -9.992188 5.28125 -9.859375 C 5.726562 -9.722656 6.039062 -9.582031 6.21875 -9.4375 L 6.5625 -9.171875 C 6.832031 -8.910156 6.96875 -8.691406 6.96875 -8.515625 C 6.96875 -8.335938 6.863281 -8.085938 6.65625 -7.765625 C 6.34375 -7.316406 6.023438 -7.09375 5.703125 -7.09375 C 5.515625 -7.09375 5.28125 -7.179688 5 -7.359375 C 4.96875 -7.378906 4.914062 -7.425781 4.84375 -7.5 C 4.769531 -7.570312 4.703125 -7.628906 4.640625 -7.671875 C 4.453125 -7.796875 4.207031 -7.859375 3.90625 -7.859375 C 3.613281 -7.859375 3.367188 -7.785156 3.171875 -7.640625 C 2.984375 -7.503906 2.890625 -7.3125 2.890625 -7.0625 C 2.890625 -6.8125 3.003906 -6.609375 3.234375 -6.453125 C 3.460938 -6.304688 3.75 -6.203125 4.09375 -6.140625 C 4.4375 -6.085938 4.8125 -6.003906 5.21875 -5.890625 C 5.625 -5.785156 6 -5.648438 6.34375 -5.484375 C 6.6875 -5.328125 6.972656 -5.046875 7.203125 -4.640625 C 7.429688 -4.242188 7.546875 -3.75 7.546875 -3.15625 C 7.546875 -2.570312 7.425781 -2.054688 7.1875 -1.609375 C 6.957031 -1.171875 6.648438 -0.828125 6.265625 -0.578125 C 5.535156 -0.0976562 4.757812 0.140625 3.9375 0.140625 C 3.507812 0.140625 3.101562 0.0859375 2.71875 -0.015625 C 2.34375 -0.117188 2.039062 -0.25 1.8125 -0.40625 C 1.332031 -0.695312 1 -0.976562 0.8125 -1.25 Z M 0.6875 -1.390625 "/></g></g></g><g fill="#ffffff" fill-opacity="1"><g transform="translate(135.845039, 18.886249)"><g><path d="M 4.671875 -4.734375 L 3.796875 -4.78125 L 3.796875 -2.921875 C 3.796875 -2.671875 3.832031 -2.492188 3.90625 -2.390625 C 3.988281 -2.285156 4.132812 -2.234375 4.34375 -2.234375 C 4.550781 -2.234375 4.710938 -2.222656 4.828125 -2.203125 C 4.941406 -2.191406 5.0625 -2.148438 5.1875 -2.078125 C 5.394531 -1.960938 5.5 -1.660156 5.5 -1.171875 C 5.5 -0.609375 5.375 -0.265625 5.125 -0.140625 C 4.988281 -0.078125 4.867188 -0.0351562 4.765625 -0.015625 C 4.660156 -0.00390625 4.507812 0 4.3125 0 C 3.375 0 2.660156 -0.207031 2.171875 -0.625 C 1.691406 -1.050781 1.453125 -1.769531 1.453125 -2.78125 L 1.453125 -4.78125 C 1.273438 -4.757812 1.085938 -4.75 0.890625 -4.75 C 0.691406 -4.75 0.523438 -4.820312 0.390625 -4.96875 C 0.265625 -5.125 0.203125 -5.382812 0.203125 -5.75 C 0.203125 -6.125 0.222656 -6.394531 0.265625 -6.5625 C 0.316406 -6.726562 0.378906 -6.847656 0.453125 -6.921875 C 0.597656 -7.035156 0.78125 -7.09375 1 -7.09375 L 1.453125 -7.046875 L 1.453125 -8.4375 C 1.453125 -8.644531 1.457031 -8.796875 1.46875 -8.890625 C 1.476562 -8.992188 1.519531 -9.101562 1.59375 -9.21875 C 1.707031 -9.445312 2.054688 -9.5625 2.640625 -9.5625 C 3.242188 -9.5625 3.609375 -9.394531 3.734375 -9.0625 C 3.773438 -8.914062 3.796875 -8.679688 3.796875 -8.359375 L 3.796875 -7.046875 C 4.191406 -7.078125 4.488281 -7.09375 4.6875 -7.09375 C 4.894531 -7.09375 5.050781 -7.085938 5.15625 -7.078125 C 5.257812 -7.066406 5.378906 -7.023438 5.515625 -6.953125 C 5.742188 -6.828125 5.859375 -6.476562 5.859375 -5.90625 C 5.859375 -5.34375 5.738281 -4.992188 5.5 -4.859375 C 5.363281 -4.796875 5.242188 -4.757812 5.140625 -4.75 C 5.035156 -4.738281 4.878906 -4.734375 4.671875 -4.734375 Z M 4.671875 -4.734375 "/></g></g></g><g fill="#ffffff" fill-opacity="1"><g transform="translate(141.914698, 18.886249)"><g><path d="M 0.34375 -3.546875 C 0.34375 -4.628906 0.71875 -5.519531 1.46875 -6.21875 C 2.226562 -6.925781 3.09375 -7.28125 4.0625 -7.28125 C 5.039062 -7.28125 5.898438 -6.929688 6.640625 -6.234375 C 7.390625 -5.535156 7.765625 -4.644531 7.765625 -3.5625 C 7.765625 -2.820312 7.570312 -2.160156 7.1875 -1.578125 C 6.800781 -0.992188 6.332031 -0.5625 5.78125 -0.28125 C 5.226562 -0.0078125 4.648438 0.125 4.046875 0.125 C 3.453125 0.125 2.875 -0.0195312 2.3125 -0.3125 C 1.757812 -0.601562 1.289062 -1.035156 0.90625 -1.609375 C 0.53125 -2.179688 0.34375 -2.828125 0.34375 -3.546875 Z M 3.15625 -2.578125 C 3.445312 -2.359375 3.738281 -2.25 4.03125 -2.25 C 4.332031 -2.25 4.628906 -2.363281 4.921875 -2.59375 C 5.222656 -2.820312 5.375 -3.15625 5.375 -3.59375 C 5.375 -4.03125 5.234375 -4.359375 4.953125 -4.578125 C 4.679688 -4.796875 4.378906 -4.90625 4.046875 -4.90625 C 3.722656 -4.90625 3.421875 -4.789062 3.140625 -4.5625 C 2.867188 -4.34375 2.734375 -4.015625 2.734375 -3.578125 C 2.734375 -3.140625 2.875 -2.804688 3.15625 -2.578125 Z M 3.15625 -2.578125 "/></g></g></g><g fill="#ffffff" fill-opacity="1"><g transform="translate(150.025598, 18.886249)"><g><path d="M 5.375 -7.03125 C 5.550781 -6.976562 5.691406 -6.882812 5.796875 -6.75 C 5.910156 -6.625 5.96875 -6.414062 5.96875 -6.125 C 5.96875 -5.84375 5.878906 -5.53125 5.703125 -5.1875 C 5.535156 -4.84375 5.289062 -4.671875 4.96875 -4.671875 C 4.8125 -4.671875 4.65625 -4.707031 4.5 -4.78125 C 4.351562 -4.851562 4.15625 -4.890625 3.90625 -4.890625 C 3.664062 -4.890625 3.441406 -4.800781 3.234375 -4.625 C 3.023438 -4.457031 2.921875 -4.253906 2.921875 -4.015625 L 2.921875 -1.171875 C 2.921875 -0.960938 2.910156 -0.804688 2.890625 -0.703125 C 2.878906 -0.597656 2.835938 -0.476562 2.765625 -0.34375 C 2.628906 -0.113281 2.28125 0 1.71875 0 C 1.28125 0 0.96875 -0.078125 0.78125 -0.234375 C 0.632812 -0.359375 0.554688 -0.550781 0.546875 -0.8125 C 0.546875 -0.90625 0.546875 -1.035156 0.546875 -1.203125 L 0.546875 -5.953125 C 0.546875 -6.148438 0.550781 -6.300781 0.5625 -6.40625 C 0.570312 -6.507812 0.609375 -6.628906 0.671875 -6.765625 C 0.796875 -7.003906 1.148438 -7.125 1.734375 -7.125 C 2.273438 -7.125 2.613281 -7.019531 2.75 -6.8125 C 2.84375 -6.664062 2.890625 -6.515625 2.890625 -6.359375 C 2.929688 -6.421875 2.992188 -6.5 3.078125 -6.59375 C 3.171875 -6.6875 3.359375 -6.804688 3.640625 -6.953125 C 3.921875 -7.109375 4.164062 -7.1875 4.375 -7.1875 C 4.582031 -7.1875 4.757812 -7.175781 4.90625 -7.15625 C 5.050781 -7.132812 5.207031 -7.09375 5.375 -7.03125 Z M 5.375 -7.03125 "/></g></g></g><g fill="#ffffff" fill-opacity="1"><g transform="translate(155.79774, 18.886249)"><g><path d="M 7.40625 -4.40625 C 7.40625 -3.851562 7.265625 -3.441406 6.984375 -3.171875 C 6.710938 -2.910156 6.410156 -2.78125 6.078125 -2.78125 L 2.875 -2.78125 C 2.875 -2.53125 3.019531 -2.316406 3.3125 -2.140625 C 3.613281 -1.972656 3.914062 -1.890625 4.21875 -1.890625 C 4.738281 -1.890625 5.148438 -1.941406 5.453125 -2.046875 L 5.59375 -2.109375 C 5.8125 -2.203125 5.992188 -2.25 6.140625 -2.25 C 6.421875 -2.25 6.664062 -2.050781 6.875 -1.65625 C 7 -1.40625 7.0625 -1.195312 7.0625 -1.03125 C 7.0625 -0.226562 6.097656 0.171875 4.171875 0.171875 C 3.503906 0.171875 2.910156 0.0546875 2.390625 -0.171875 C 1.878906 -0.398438 1.476562 -0.703125 1.1875 -1.078125 C 0.625 -1.804688 0.34375 -2.625 0.34375 -3.53125 C 0.34375 -4.664062 0.707031 -5.570312 1.4375 -6.25 C 2.175781 -6.925781 3.09375 -7.265625 4.1875 -7.265625 C 5.4375 -7.265625 6.359375 -6.828125 6.953125 -5.953125 C 7.253906 -5.484375 7.40625 -4.96875 7.40625 -4.40625 Z M 4.5625 -4.015625 C 4.894531 -4.015625 5.0625 -4.160156 5.0625 -4.453125 C 5.0625 -4.648438 4.984375 -4.8125 4.828125 -4.9375 C 4.671875 -5.070312 4.445312 -5.140625 4.15625 -5.140625 C 3.863281 -5.140625 3.570312 -5.019531 3.28125 -4.78125 C 3 -4.539062 2.859375 -4.285156 2.859375 -4.015625 Z M 4.5625 -4.015625 "/></g></g></g><path stroke-linecap="butt" transform="matrix(-0.725806, 0, 0, -0.725806, 167.721177, 24.180901)" fill="none" stroke-linejoin="miter" d="M -0.00203754 1.998374 L 28.30699 1.998374 " stroke="#5e17eb" stroke-width="4" stroke-opacity="1" stroke-miterlimit="4"/><path stroke-linecap="butt" transform="matrix(0, 0.725806, -0.725806, 0, 167.727374, 14.517369)" fill="none" stroke-linejoin="miter" d="M -0.00240222 1.99782 L 13.31791 1.99782 " stroke="#5e17eb" stroke-width="4" stroke-opacity="1" stroke-miterlimit="4"/></svg>